
<global>
amp_veltrack=0
ampeg_release=0.35
</global>

<group>
group_label=PP
lpc_hicc1=42
lpc_locc1=0

<region>
hikey=a3
hivel=127
lokey=g#3
lovel=1
lpc=AlgkQR9/6cFVKRhCW7LpwcdOZUHPu7HA34eFQIyh5MBghgBBsqFbwLQDP8BU2pZAXOZjvweUdMD+CN1ArKwJwRdiEEEcxwDB+HjYQBOOgMDRkPK98N0iQEee8b8nSuo+
lpc_rms=-33.88
pitch_keycenter=a3
sample=Violin2Solo_trill_min3rd_PP_A3.opus
</region>

<region>
hikey=a4
hivel=127
lokey=g#4
lovel=1
lpc=LA0MQesMusGxL+NBKyavwdXNYEFVERTBWmqvQN2IQMBdSBRA/3cnwGPrKkAH0rS/1nNXPW1Dob1Wfo4/z9Odv/uD2j+avBrA4SQLQCs/Jb9kQs6/81g/QN/xDcBOEDU/
lpc_rms=-34.26
pitch_keycenter=a4
sample=Violin2Solo_trill_min3rd_PP_A4.opus
</region>

<region>
hikey=a5
hivel=127
lokey=g#5
lovel=1
lpc=tc6GQCMd5cB7wPNAQTSbwMmOVkBQgtO/+fTRP1z/j7/krOY/Hx83vTk9db85Ffo/simBv3eNSj9moDE/A0lIv8Uv3D9jTZy/mm0MQDZPqb9M8+M+4YJYPzIVU7/i/kM/
lpc_rms=-25.77
pitch_keycenter=a5
sample=Violin2Solo_trill_min3rd_PP_A5.opus
</region>

<region>
hikey=a6
hivel=127
lokey=g#6
lovel=1
lpc=7tgRQVFzG8G9/z5BUdnIwOG93kDvRPS/vMNzQEa/VT7dwRVAQjAPQGMtAjxHaJW/+zMtQJfQscBFEoe+FeUbQNxK5MCAZJ5A5IbVwEavX0C9ObTAzzInQOm2nsBAbXQ/
lpc_rms=-25.17
pitch_keycenter=a6
sample=Violin2Solo_trill_min3rd_PP_A6.opus
</region>

<region>
hikey=b3
hivel=127
lokey=a#3
lovel=1
lpc=S1hRQXbEDsLoRylCy1rmwdjyXkE1WRjB1EgTQTx4AcEVndtAMYqUwGR+I0AGBwbA+PgJP6OizT/AjZw/XJrCwEbn1UBtTy7AOXHPPfLLg78lo2q/xwWqQGRiyMAFTjFA
lpc_rms=-31.49
pitch_keycenter=b3
sample=Violin2Solo_trill_min3rd_PP_B3.opus
</region>

<region>
hikey=b4
hivel=127
lokey=a#4
lovel=1
lpc=+c+hQOjENsF36k5B7Z8bwXC70UBCjoHAg3ccQHsHKMD2R1hAlUBFwBsw+j+c9cK+/AUGv9kBkD4kDxg/istCv8UDTD+HT0i/s4YhPzI+Pz5lh3y/kSq5P3xVdb+2HwQ/
lpc_rms=-34.27
pitch_keycenter=b4
sample=Violin2Solo_trill_min3rd_PP_B4.opus
</region>

<region>
hikey=b5
hivel=127
lokey=a#5
lovel=1
lpc=EaeIQJFItMDlH5ZA9ULcv+bC3D+BXw6+DVwzP06OqL/CWwxA5vViv2gSqT9Rclm/W2/cP61cvr8YVxVAA5uxv71Wsz9Q6N09LsvOPR2rrj/Djfi/2eSeP51siz9mHKC/
lpc_rms=-28.09
pitch_keycenter=b5
sample=Violin2Solo_trill_min3rd_PP_B5.opus
</region>

<region>
hikey=C#7
hivel=127
lokey=a#6
lovel=1
lpc=bxQKQY/t/cCWGc5Ae1VmwDU3bUCxwC6/lB8oQN2TrL8cMVFAXaecvkrLhcBfnS5AHpW1wEiJrkAZDiXAO73KP6tSB8Ckx8M/dBrJv8NKoD8lKeK/XuPmPuHCjEDVrhDA
lpc_rms=-30.10
pitch_keycenter=B6
sample=Violin2Solo_trill_min3rd_PP_B6.opus
</region>

<region>
hikey=c#4
hivel=127
lokey=c4
lovel=1
lpc=qpu9QeYYi8KFR7JCBE2HwgekGEIw8b7BiOyUQTDBhsGIi25BlbwvwcNX1UCD0fK/gZMJvz1B5D5jEjA/321ywJ3EHUGOchjB+k5HP3yM3kBiiyrBau8iQbCvtcD8oKk/
lpc_rms=-26.82
pitch_keycenter=c#4
sample=Violin2Solo_trill_min3rd_PP_C#4.opus
</region>

<region>
hikey=c#5
hivel=127
lokey=c5
lovel=1
lpc=gsAGQR6GncH9OLZB8PmXwUUDWkH6AfzA3DExQJ7FmL++ahtAzvBlwN5FfUBtIBvAjVsOP5hytr7ash9AdDCIwLC7nEBL5XLAu/qxPwpTxT9aYGzAs+FtQCT9GsBK/ac/
lpc_rms=-26.67
pitch_keycenter=c#5
sample=Violin2Solo_trill_min3rd_PP_C#5.opus
</region>

<region>
hikey=c#6
hivel=127
lokey=c6
lovel=1
lpc=lSrVQAslI8HQ4BZBtEhjwG+f7z9nByo+5GBRP5tsWT/HYOu+BhQJQM9OQb/NOJU/lNicP89SD79Q2+s/reUtvlzePT9fW38/2qB7v8usNECJhW2/JtY4wNJhiECU3MC/
lpc_rms=-25.73
pitch_keycenter=c#6
sample=Violin2Solo_trill_min3rd_PP_C#6.opus
</region>

<region>
hikey=d#4
hivel=127
lokey=d4
lovel=1
lpc=uNsWQUA80cEPiAJCAwTFwc2SckHJXR/BBq+kQARR6r/HpQxADxWBwMl+eEBHrbO/owOvv4BUAkBfb5a+L90qwChrk0Ajbz3A7YfxvVCg8T9ZiC7AAU5DQKTn878ql/U+
lpc_rms=-31.95
pitch_keycenter=d#4
sample=Violin2Solo_trill_min3rd_PP_D#4.opus
</region>

<region>
hikey=d#5
hivel=127
lokey=d5
lovel=1
lpc=Eci3QEHkVsE723RBLjI0wYaT9UBWtJbAl/HlP6lurr8tEVFAbtkiwJiCzTzWoMg/jQa5v9XphT/3wr8+qMX+v3x1PkDYPyjAuA3SP6fPobz0zqu/LUwhQKYREMAJ4Is/
lpc_rms=-28.77
pitch_keycenter=d#5
sample=Violin2Solo_trill_min3rd_PP_D#5.opus
</region>

<region>
hikey=d#6
hivel=127
lokey=d6
lovel=1
lpc=w/+4QHmWKMF87T5BrZe9wLjJoD/izB9ASt+kv5F27D88WjS+tKKMP5LOhT/BuX6/WY8aQPylKL/f+Y8/+zQ1P87kAcD++YNAJasLwO3dLcAO9uVAv/vkwMPCikDlu46/
lpc_rms=-25.90
pitch_keycenter=d#6
sample=Violin2Solo_trill_min3rd_PP_D#6.opus
</region>

<region>
hikey=f4
hivel=127
lokey=e4
lovel=1
lpc=V6UVQXF+y8EPZP5BXXLEwe00cUEViBrBw6ytQC7hWcB/14xADJyHwCKy8D9g+ZQ8UQKfv/nkuD/CxWs/8y1OwMdMVUDq57i/5rdBvn7Atj9dfFbA77eZQNiQjcBG8+w/
lpc_rms=-32.87
pitch_keycenter=f4
sample=Violin2Solo_trill_min3rd_PP_F4.opus
</region>

<region>
hikey=f5
hivel=127
lokey=e5
lovel=1
lpc=DYyQQO659MAPwtNAuM44wIjSZT8PZ0c/CZVevxdJBr9e4ARAK5+4v2bM4D5dkKk9yHIJP5ii2L/e7BZA9i86v+enz77mTtw/oMq5v2zxyD8HwmC/YoqZPrdZgD4U/GM9
lpc_rms=-28.12
pitch_keycenter=f5
sample=Violin2Solo_trill_min3rd_PP_F5.opus
</region>

<region>
hikey=f6
hivel=127
lokey=e6
lovel=1
lpc=E/2iQBhm/cBFsg5BNEaBwF7bgD+pwiNArcEDv50Dbj/dppg/YFQlP0/yoD/hm5k/QxaSPw3ICT/XDtS9ZZfNP9g35D9ADoXAF43pQAptosDKgf4/Q6LFP6h9sL/wxYQ/
lpc_rms=-29.40
pitch_keycenter=f6
sample=Violin2Solo_trill_min3rd_PP_F6.opus
</region>

<region>
hivel=127
key=g3
lovel=1
lpc=USMsQYq278HAaxhCeA/qwSUNfEF0NwLBv/C2QOM4vsDBSsNA01tbwAlwy743UhlA/+Txv0z+hz72mg5AdsaMwKpOw0A4nbXAos9IQK6Gar8QK66/73pzQNb1kMC+gQpA
lpc_rms=-33.79
sample=Violin2Solo_trill_min3rd_PP_G3.opus
</region>

<region>
hikey=g4
hivel=127
lokey=f#4
lovel=1
lpc=PhjbQBngi8EHMadBL816wWnQHEFSpr7AR4PgP6a0dD+/1P2+UnRgvy9rpD+mOJS/8YbXPhjiHL8mdDlAzAiowLc9yUBX+KrAbFpDQCC2w743W7u/JQQDQBeHtr93FwM/
lpc_rms=-33.93
pitch_keycenter=g4
sample=Violin2Solo_trill_min3rd_PP_G4.opus
</region>

<region>
hikey=g5
hivel=127
lokey=f#5
lovel=1
lpc=Jq9HQM3LmsDFkoVApnfVv6ovmD/LB4W/tQuzP7Q/vb8Mcsc/YFKZvshfB7/1+I4/IHPCvu69mb7eoUk/PyIvPmx79762fDc/5fdbvgMnPj+W816/tNKUP1ks/779rGU+
lpc_rms=-32.14
pitch_keycenter=g5
sample=Violin2Solo_trill_min3rd_PP_G5.opus
</region>

<region>
hikey=g6
hivel=127
lokey=f#6
lovel=1
lpc=mom3QKTcDsHTSx1BgkyLwLHItT+hKX8/YsSVP99Tkb9UOjFA9SCOv6ieIEB0cG6/+0nCPzv3I8B2p6NAzCvtwHgd1kCnMl/AQjhPv47BIkDIINO/OEG7v4aGOUA2jhjA
lpc_rms=-29.97
pitch_keycenter=g6
sample=Violin2Solo_trill_min3rd_PP_G6.opus
</region>
</group>

<group>
group_label=MF
lpc_hicc1=84
lpc_locc1=43

<region>
hikey=a3
hivel=127
lokey=g#3
lovel=1
lpc=e8oTQem+1cEHghJCOdT6waBzmEGSmRTBsPmTQGWIkcB4EqlABs5GwO2ueb8sziVArzrtv4j4hD+qUqA+HdwqwF3yhkBITojAfdpsQMnhh78vdE7AHHuhQJDNOcCSQxg/
lpc_rms=-24.87
pitch_keycenter=a3
sample=Violin2Solo_trill_min3rd_MF_A3.opus
</region>

<region>
hikey=a4
hivel=127
lokey=g#4
lovel=1
lpc=Gm7oQGIUkcGDTqNB2dVjwVxWFkET1vjAzye3QOraR8BPRI0//w78vZd0yr6jkZg/23LOv1ovUD+re6g/SAszwKTYTUDXZyPAb5HCPzqNEL963Nq+08ycP091YL8rizs+
lpc_rms=-25.32
pitch_keycenter=a4
sample=Violin2Solo_trill_min3rd_MF_A4.opus
</region>

<region>
hikey=a5
hivel=127
lokey=g#5
lovel=1
lpc=Nb9YQO4pmsAitZVAozAlwESO4T+jyuu+b6BEP9OG4r6serg/869Gv7q/ID8OsKg+d22dPjXQjT4g/84+3+NxPqg+mD511jk+Q7nzPnlhkz5Gnc2+7BaAP68FV79/qD8/
lpc_rms=-22.10
pitch_keycenter=a5
sample=Violin2Solo_trill_min3rd_MF_A5.opus
</region>

<region>
hikey=a6
hivel=127
lokey=g#6
lovel=1
lpc=LOLFQFbFZMDCHeJAbbomwJPDrUDwTt++oNRkQMPYkD/z4w5A7DsSQDSR/D8ywIa/dbkpQDwwlsDjoDw/q9G8v4gHBsCBLOI+mKtawAaqMj+W7FrAsBpoPgIKMcBw5KG/
lpc_rms=-23.74
pitch_keycenter=a6
sample=Violin2Solo_trill_min3rd_MF_A6.opus
</region>

<region>
hikey=b3
hivel=127
lokey=a#3
lovel=1
lpc=u09AQVlOBcJgOyZCPlj4wWEzgkHSuhfBaOj9QJCYy8BBxVxAE7Qqv7btsb64UjY/yW2Sv6Olvz6xywxAL2COwKk4wkBkUa7APFNDQG1L6b+YFoy9B15DQIvuhcAlgABA
lpc_rms=-23.28
pitch_keycenter=b3
sample=Violin2Solo_trill_min3rd_MF_B3.opus
</region>

<region>
hikey=b4
hivel=127
lokey=a#4
lovel=1
lpc=pwmcQA5ULMHqNDpBNwoDwaqmn0Ai7TfAWQ1HP7Sxkr6Csb4/ooXXv7uQaT/zqka+LH0DP0BRdr9CL8g/bNr3vyiiCUA2qgjAkpL7P+ujir83BY+9VFEaP5o5ZL4uKXe9
lpc_rms=-26.80
pitch_keycenter=b4
sample=Violin2Solo_trill_min3rd_MF_B4.opus
</region>

<region>
hikey=b5
hivel=127
lokey=a#5
lovel=1
lpc=4ayjQD83xsABPLdA+DkXwH78CkDAOIQ9TwI5P8kzUb4qloQ/unoGPbyvpz85Oe6+BZgQQPnV7r+j0hJAHHYHv5eMoj8oWsI+GT49P8ZYED8Ulzq/s/WkP/bpcj9TmYS/
lpc_rms=-22.13
pitch_keycenter=b5
sample=Violin2Solo_trill_min3rd_MF_B5.opus
</region>

<region>
hikey=C#7
hivel=127
lokey=a#6
lovel=1
lpc=AHHFQEBSVsAP7YZAQtmbv/H4M0Drd0Y/6PPUP3tevD9B7OA/rfotQH0LQsCHXCBAk3txwEw+G0DDGR2+KeYWvrl/SD/LIjm/mAYsPxn3g7/Iqpc+6h+9v5PoYEBCHIW+
lpc_rms=-24.16
pitch_keycenter=B6
sample=Violin2Solo_trill_min3rd_MF_B6.opus
</region>

<region>
hikey=c#4
hivel=127
lokey=c4
lovel=1
lpc=xXlyQR2ULsK8umVCMDo5wuP2yUETfSrBzeauQOKF1cDGgv5AIu2PwFHatL9aFYRASLkzwKbFoD7aYEFAogylwPO0rkDyLZ3AKTWXQLwvA8DtpmrAs27DQKjzZ8BH6lI/
lpc_rms=-20.12
pitch_keycenter=c#4
sample=Violin2Solo_trill_min3rd_MF_C#4.opus
</region>

<region>
hikey=c#5
hivel=127
lokey=c5
lovel=1
lpc=RAYFQbafj8HcOIpBpqUowUyXxkD1LUjA0ZeDv+7fvz95UARAbs81wNslhT+5fVa+4gLePSHAyb5KeBBABjZywLIbmECeDojAfE0gQLcfs73/Bri/KffzP8pcBMDr1L4/
lpc_rms=-21.55
pitch_keycenter=c#5
sample=Violin2Solo_trill_min3rd_MF_C#5.opus
</region>

<region>
hikey=c#6
hivel=127
lokey=c6
lovel=1
lpc=vh6xQFoe/cDiDd1A/SP6v+JgYz/Mn+k+YX5yP7jbqL5FtOk/RaJVv1Kc2T8HrWG+avD5P/5Rlb+SFyFANlTAv2akL0CfBY+/hyKGPh+R2j+V1Lg+pYBTwJ6gb0AKG2e/
lpc_rms=-21.49
pitch_keycenter=c#6
sample=Violin2Solo_trill_min3rd_MF_C#6.opus
</region>

<region>
hikey=d#4
hivel=127
lokey=d4
lovel=1
lpc=7sztQK+km8FuvrlByYGFwZplEUHzbK3AAhBzQGf8TcCxBYRAFgSpwFTjhUCXEam/D81Av7k8Gj+TwUY/LID4v2vIKUACNgTAixo5P2jj9T4/V6O/CnufPwwkHr9svTA+
lpc_rms=-25.93
pitch_keycenter=d#4
sample=Violin2Solo_trill_min3rd_MF_D#4.opus
</region>

<region>
hikey=d#5
hivel=127
lokey=d5
lovel=1
lpc=5LCVQIyNIsEgKzFBw5r/wC9ZtkAoU2fADs9pP5pGGz8XqUK+Z7QyPy6AAsBI5yZAPwmYv8LD1L4k9Zw/lzOcv/sB2z89p+K/8yqWP9HPBL8bk14/MBkTv0B2k71bg90+
lpc_rms=-24.47
pitch_keycenter=d#5
sample=Violin2Solo_trill_min3rd_MF_D#5.opus
</region>

<region>
hikey=d#6
hivel=127
lokey=d6
lovel=1
lpc=xrOyQMNjDcEiOgtBaJkbwH8v8rmootk/jSclP/NDDT88qNM/C6zfvlGEI0AC/je/u6AQQDXvmb4vivQ/xS82vEurnj7nIw9AeQiAvnD+TMC+CcxA1193wD1efz/XMWU/
lpc_rms=-21.49
pitch_keycenter=d#6
sample=Violin2Solo_trill_min3rd_MF_D#6.opus
</region>

<region>
hikey=f4
hivel=127
lokey=e4
lovel=1
lpc=Bw/YQPQpisFgLqdBPaF9waGdGUEgb8/AnaGXQKXzV8DP1S5Aces6wF8NE0D2EUg9qwQKwMw7BkCc6QG/ZlpWv0v+2j/GHK2/5qbPPh2QgD8FoRHAlBsWQEGvpb+okzs+
lpc_rms=-27.15
pitch_keycenter=f4
sample=Violin2Solo_trill_min3rd_MF_F4.opus
</region>

<region>
hikey=f5
hivel=127
lokey=e5
lovel=1
lpc=EZ6PQMWb38Bgl6FA7p3lv0ZigD+ix9O9nCBiPliZ4b6rtuw+jb7CPjPUET0y/9y+qbcFPw0WlL8YIgZAcu0sv5tI4L7v9uc/ONrBv8kLiD86+LI+CJCevw0DrD/UXwO+
lpc_rms=-22.46
pitch_keycenter=f5
sample=Violin2Solo_trill_min3rd_MF_F5.opus
</region>

<region>
hikey=f6
hivel=127
lokey=e6
lovel=1
lpc=Fx2ZQLny0cBOW/5AYLBswCUhC0C6bQxAFEDevi622D/p2uE/zf7UPmyt8T/wAsY/cOnSP3ixhj/LPA8/nxG2PxqgBkCaqErAk9rRQFsQnsDhAXJAMMlWvhaS4754aKo/
lpc_rms=-25.17
pitch_keycenter=f6
sample=Violin2Solo_trill_min3rd_MF_F6.opus
</region>

<region>
hivel=127
key=g3
lovel=1
lpc=oYQRQcfCzcEiXgZC0F7TwdIvbUFv+/rASkGdQCLdcMAC7G9A1TIswGlLL73OycY/abxmv+pW0j6xks0+SpkMwPcXckD1uHDAR3MPQBgE+D4BSUjAWfNhQJfs67+/ZJI+
lpc_rms=-25.93
sample=Violin2Solo_trill_min3rd_MF_G3.opus
</region>

<region>
hikey=g4
hivel=127
lokey=f#4
lovel=1
lpc=7C7mQAZjkMHss6VBRWVswbBBEEG0DcXAwYaEQAxQL8AL3SVAlAZ0wM4KgECI7AfAscb1vamQ1j5zlpI/fAVAwM+ZhUDjtkLAQOWCP0dcxj7NU4C/fyB2P7+P4r3B0Iq+
lpc_rms=-25.54
pitch_keycenter=g4
sample=Violin2Solo_trill_min3rd_MF_G4.opus
</region>

<region>
hikey=g5
hivel=127
lokey=f#5
lovel=1
lpc=9PFBQHXVg8AinmpAfGjav88t3T8SP6u/yVSfPz+cD7/CcV4+48xNP0EEBb+9jZU/FIM2v2zAwD7/7xw/MSMRvo72gj7i9yA+0UjuvdhJWj//IW2+EBGUPvIBXz7Asbg9
lpc_rms=-25.17
pitch_keycenter=g5
sample=Violin2Solo_trill_min3rd_MF_G5.opus
</region>

<region>
hikey=g6
hivel=127
lokey=f#6
lovel=1
lpc=KXqqQFpWtsCY5O1AkZkqwJskJkC8n8U/O8EsP3emij9nmdQ/cHe8P5ezC0CI/7U/17HpPzxbv75MeotAyZ6XwNYzzECBNGTA3wK3P/iygj9l1aC+rVU9PyrJCz9l/eq9
lpc_rms=-26.05
pitch_keycenter=g6
sample=Violin2Solo_trill_min3rd_MF_G6.opus
</region>
</group>

<group>
group_label=FF
lpc_hicc1=127
lpc_locc1=85

<region>
hikey=a3
hivel=127
lokey=g#3
lovel=1
lpc=qU0HQUw8vMG+DfhBwQDMwbD6cEEv/APBzYOrQI+HjsBKtIFAtoVFwDN8sj/Gfme+6iaWvSE8Cb8tkwJAhFFTwGNuYUBFmSTAO2vEP5x8wb5NFIm/7FnwP0FDrr93dNI+
lpc_rms=-19.44
pitch_keycenter=a3
sample=Violin2Solo_trill_min3rd_FF_A3.opus
</region>

<region>
hikey=a4
hivel=127
lokey=g#4
lovel=1
lpc=BNvTQLZHhcHNsplBgFVUwW8M60ChpqbAt3uSQCWra8DIghxAkBiuv2mR1D2Yu8c/wAcawNY0AEAs1Om+z7Wrv3I8HkCQjxHAf+/NP1FrVr/iYVQ+GTsHvk3P/j6l9JG+
lpc_rms=-22.53
pitch_keycenter=a4
sample=Violin2Solo_trill_min3rd_FF_A4.opus
</region>

<region>
hikey=a5
hivel=127
lokey=g#5
lovel=1
lpc=wG54QJUdvcBjQaVAea0JwMlEjz/jQCW/Fd2FP6NhSr+nzXI/O1GrPrAyEb+I1Vc/xJIKPyynhb/bgLU/e8o8vrrqST3SRPo+QJOfPkEDYb2pWCS9eJ8UPzInE7+gJuI+
lpc_rms=-19.50
pitch_keycenter=a5
sample=Violin2Solo_trill_min3rd_FF_A5.opus
</region>

<region>
hikey=a6
hivel=127
lokey=g#6
lovel=1
lpc=Iw4HQd1NwMASChNBhVvkv8YehUDIVsU/3qJvQGPwMD96YZJAyMahP1MpWkBz31a/3dmmPxw88r8Y+HDAckInQK3arsC8UFw/zUQ9wPEPU7/qlETASqbDvjYEQ8A5/wnA
lpc_rms=-20.94
pitch_keycenter=a6
sample=Violin2Solo_trill_min3rd_FF_A6.opus
</region>

<region>
hikey=b3
hivel=127
lokey=a#3
lovel=1
lpc=csAyQQ9z+MGB0x1C0+Pxwb9qekGQmeHAIEofQIFORT+LDhbAGQYCQABKJL9fe90+7SYCwKRQEkDpNKk/prmawGf4nUAHYg7Am1gKPyozdL/Z4Yi+9dRNQGFWhcCBye0/
lpc_rms=-18.72
pitch_keycenter=b3
sample=Violin2Solo_trill_min3rd_FF_B3.opus
</region>

<region>
hikey=b4
hivel=127
lokey=a#4
lovel=1
lpc=BeCnQCREOsEUtElBrjQSwWchs0Cv9FHATc/kP14gjr/PfKo/Yyiivw5veD+d+Ai/rRI0P9qkW78nKKE/K9rTv7R6E0DGU/W/ZUyJP5j1J78V7+C7Pq2MPiKqOT6XMyW9
lpc_rms=-24.40
pitch_keycenter=b4
sample=Violin2Solo_trill_min3rd_FF_B4.opus
</region>

<region>
hikey=b5
hivel=127
lokey=a#5
lovel=1
lpc=vaCjQC+U6cA7GehAq2BnwGO4E0BE/9i+yDWJP7OHBL4CYDU/A9McPORiiT97MAW+t8CLPwl/Lb98Erg/7HDbvgkemT+nbkY/gRHIvk5KsD+SxsC/LMn+P+MD277e5w6+
lpc_rms=-19.14
pitch_keycenter=b5
sample=Violin2Solo_trill_min3rd_FF_B5.opus
</region>

<region>
hikey=C#7
hivel=127
lokey=a#6
lovel=1
lpc=65nWQBdee8DN1Y1AegG1v0RWN0B5Iqo+mIADQN7cej93evQ/72oeQInNg8CxZ29AX+uuwM2LVkCcUW6/g/toP9uz+77sLl4+7cEYvK7WCb8erAG9dU+yvw6lh0ArmS2/
lpc_rms=-24.32
pitch_keycenter=B6
sample=Violin2Solo_trill_min3rd_FF_B6.opus
</region>

<region>
hikey=c#4
hivel=127
lokey=c4
lovel=1
lpc=1HeKQfIsR8L4FoRC2QhewsMvCUKqQJTB1n8hQWha18DHfrxAAeLewJ7f0kATeRPAyllZv66myb11uYdAbdcDwc7wNEGSJzHBM1bpQJhJl7+V6ZbAIlzRQP74mMA8odc/
lpc_rms=-13.94
pitch_keycenter=c#4
sample=Violin2Solo_trill_min3rd_FF_C#4.opus
</region>

<region>
hikey=c#5
hivel=127
lokey=c5
lovel=1
lpc=sMvwQN3Yh8FlmJFBNJ5NwYjt6UApGW3AOI6+Ps8wfD/PpWM/M7whwL1iGUBtzYi/E7D9PhN3vr5nws4/KFNdwDQvmkA/oY7AnFMTQBLooT0lLNu/3x8MQB9Yw7/MznA/
lpc_rms=-19.18
pitch_keycenter=c#5
sample=Violin2Solo_trill_min3rd_FF_C#5.opus
</region>

<region>
hikey=c#6
hivel=127
lokey=c6
lovel=1
lpc=SbuLQF8htMDlSJlAyzq3vxznCUB0eJS/eII7QCGB0r/jQyFA7ysiv7jfAUCiPZq/ueVSQOXvuL85SvU//7npvXd10z94pgC/UiSNPxvxLj9LPXs/VRDtv1G93T9QdX4+
lpc_rms=-19.79
pitch_keycenter=c#6
sample=Violin2Solo_trill_min3rd_FF_C#6.opus
</region>

<region>
hikey=d#4
hivel=127
lokey=d4
lovel=1
lpc=x9oYQcJq1MHHYAZCQEjRwZJ7eUFlmxnByfvfQPhWu8BMqo1ADuz0vwsCA78krgxAjLpowBLmVEAqJxE+CAeUwB5B3EC1bbzA+dKBQLCrCcDL3Se+n1e1P9iOT78C9oo9
lpc_rms=-19.89
pitch_keycenter=d#4
sample=Violin2Solo_trill_min3rd_FF_D#4.opus
</region>

<region>
hikey=d#5
hivel=127
lokey=d5
lovel=1
lpc=7jKiQP20MsH2qUNBtf0IwZuUrECPIEnA20dxP1zerz6uNEc9fDEBPztn0L9Ypuw/JiWKv1JJsT4oTXI/WtTbv05IAECOTLy/jXyIP1EnTb9/MR4/3vacvUKtjD0PGzM+
lpc_rms=-22.33
pitch_keycenter=d#5
sample=Violin2Solo_trill_min3rd_FF_D#5.opus
</region>

<region>
hikey=d#6
hivel=127
lokey=d6
lovel=1
lpc=FXawQJIICsGYaRJBYc1qwKej+D84bXS+u8AqQIV5Ob+DBAZA2cVjPu2i7D8rWLU9Y5LHPz3TIT8MRoo/ywfHP5jR0L8kxGFAM6KGvf3xXMD8HLNAz6spwD/E1D6DcHI/
lpc_rms=-18.90
pitch_keycenter=d#6
sample=Violin2Solo_trill_min3rd_FF_D#6.opus
</region>

<region>
hikey=f4
hivel=127
lokey=e4
lovel=1
lpc=jCQIQTXRs8FirN5B9FevwbI1RkHObsTAO6dwQNTnXcAeyTZAF/npvuFv/b+s1xlAeq6ev95Xfr6fQhRAhW+GwH8/o0D1CJDAY0tQQC23j7/1tLK/16oQQFjD+b990ms/
lpc_rms=-22.32
pitch_keycenter=f4
sample=Violin2Solo_trill_min3rd_FF_F4.opus
</region>

<region>
hikey=f5
hivel=127
lokey=e5
lovel=1
lpc=b7GnQCwFJcHIUCNB+sfHwBQzhUD3ajrAYJMFQACZAsDqdU5ACnIrwDGenD+DgJg+32lSv0kHIT96+NY+yQNBv2N3zz/lZb2/njS9P1HKJ79h/wM/24Duvkwf+z54QyU+
lpc_rms=-21.58
pitch_keycenter=f5
sample=Violin2Solo_trill_min3rd_FF_F5.opus
</region>

<region>
hikey=f6
hivel=127
lokey=e6
lovel=1
lpc=VouJQPLntsDnlM5AZMgKwMeKcD82IwBA7m0xPomTbD9n7L4/cHsPP9IWzj/7Y3w/mX3UPy419D67nTo/PjR6PwOY5z+B/jzABLusQGkeVcBR9so/1yKLP9H+eL9kpo0/
lpc_rms=-24.03
pitch_keycenter=f6
sample=Violin2Solo_trill_min3rd_FF_F6.opus
</region>

<region>
hivel=127
key=g3
lovel=1
lpc=PT/uQLCboMHS7c1BMIymwd2EQ0HE2cvAVBOCQF44XMBkMDVA23zNv4Cv276O5RNAk7ISwG+9cD9uWvA+nPu3vxxPGUCBLy7Ay6UZQNFsjr9O25O/pRoRQJX3vL/R0bs+
lpc_rms=-21.60
sample=Violin2Solo_trill_min3rd_FF_G3.opus
</region>

<region>
hikey=g4
hivel=127
lokey=f#4
lovel=1
lpc=lKXyQKaFocEMxdFBeO66wWtjhUEJLSfByZncQKbQtsCcVKZALhJTwJNE7z79en8/AI7Hv2Y04T9OCcO+1EPLv9z5PUC9r0nAM/EUQMY0x7z7QCrAv6JWQHMv/L92q/8+
lpc_rms=-20.26
pitch_keycenter=g4
sample=Violin2Solo_trill_min3rd_FF_G4.opus
</region>

<region>
hikey=g5
hivel=127
lokey=f#5
lovel=1
lpc=yT1PQD72m8Av7IpAgTTnv5Crnj+bG5m/PkjZPzL2lL/niSo/TfX+Pn2jt71Eah89Cn0IP+j2er3rdwM+epzDPjJR/z3bkMu8oojGPkbLIz7wOjA80D3IPl96Cz2CkNw9
lpc_rms=-22.18
pitch_keycenter=g5
sample=Violin2Solo_trill_min3rd_FF_G5.opus
</region>

<region>
hikey=g6
hivel=127
lokey=f#6
lovel=1
lpc=pMRdQJRMYcDHfpBAjWfOvxWP/T/gnmM/ONGEP7snMz9RcPI/1HFJP4/R5D/srp0/N0GEP1xfQ75EW0xAiKoswB6PaUB+8pK/4AMXP+F7ZD8XPDS+7q2NPizI2T6wX8G+
lpc_rms=-27.50
pitch_keycenter=g6
sample=Violin2Solo_trill_min3rd_FF_G6.opus
</region>
</group>